<?xml version="1.0" encoding="utf-8"?>
<!-- Generator: Adobe Illustrator 26.3.1, SVG Export Plug-In . SVG Version: 6.00 Build 0)  -->
<svg version="1.1"
	 id="svg2" xmlns:sodipodi="http://sodipodi.sourceforge.net/DTD/sodipodi-0.dtd" xmlns:inkscape="http://www.inkscape.org/namespaces/inkscape" xmlns:svg="http://www.w3.org/2000/svg" xmlns:dc="http://purl.org/dc/elements/1.1/" xmlns:cc="http://creativecommons.org/ns#" xmlns:ns1="http://sozi.baierouge.fr" xmlns:rdf="http://www.w3.org/1999/02/22-rdf-syntax-ns#"
	 xmlns="http://www.w3.org/2000/svg" xmlns:xlink="http://www.w3.org/1999/xlink" x="0px" y="0px" viewBox="0 0 1668 1160"
	 style="enable-background:new 0 0 1668 1160;" xml:space="preserve">
<style type="text/css">
	.st0{fill:#FFFFFF;stroke:#000000;stroke-width:5;}
	.st1{fill:none;stroke:#000000;stroke-width:2;}
	.st2{fill:none;stroke:#000000;stroke-width:5;}
	.st3{fill:#88FFFF;stroke:#000000;stroke-width:5;}
	.st4{fill:#C8C8C8;stroke:#000000;stroke-width:2;}
</style>
<path class="st0" d="M1072.9,729.2c-11.1-0.8-85.6-5.5-198.5-5.5c-69,0-152,7-152,7s-8.4-47.9-8.4-78.8V504.3c0-22.7,8.4-72,8.4-72
	s94.3,5.6,152,5.6c96.1,0,182-4.5,198.5-5.5c-0.8,3-12.7,48.6-12.7,73v146.4C1060.2,676.6,1072.3,726.7,1072.9,729.2z"/>
<g id="capo">
	<path id="path4135-9" sodipodi:nodetypes="cccccccc" inkscape:connector-curvature="0" class="st0" d="M586,394.3H291.8
		l-14.1,102.8l-7,11.3v142.2l7,14.1l15.5,101.4h288.5"/>
	<path id="path4143" sodipodi:nodetypes="cc" inkscape:connector-curvature="0" class="st1" d="M272,506.5l315.3-111.2"/>
	<path id="path4145" sodipodi:nodetypes="cc" inkscape:connector-curvature="0" class="st2" d="M270.6,650.1l315.3,115.4"/>
</g>
<g id="trasera">
	<path class="st0" d="M1400.8,504.1v147.8c0,33.8-14,115.4-14,115.4h-108.4l-205.5-38l0,0c0,0,0,0,0-0.1
		c-0.6-2.5-12.7-52.6-12.7-77.3V505.5c0-24.5,11.9-70,12.7-73c0-0.1,0-0.2,0-0.2l205.5-38h108.4
		C1386.8,394.3,1400.8,466.1,1400.8,504.1z"/>
	<path id="path4205" sodipodi:nodetypes="csscsccsc" inkscape:connector-curvature="0" class="st3" d="M1084.1,450.6
		c0,0-8.4,40.8-8.4,56.3v145c0,19.7,7,57.7,7,57.7s94.3,26.7,123.9,26.7h42.2V423.9H1201C1175.6,423.9,1084.1,450.6,1084.1,450.6
		L1084.1,450.6z"/>
</g>
<g id="front">
	<path id="path4245" sodipodi:nodetypes="ccsccsccccc" inkscape:connector-curvature="0" class="st0" d="M224.4,486.9l1.4-91.5
		c0,0,5.6-23.9-25.3-25.3c-31-1.4-26.8,2.8-26.8,2.8l1.4,415.2h28.2c28.2,0,22.5-22.5,22.5-22.5v-95.7c-12.7,0-11.3-9.6-11.3-16.9
		V503.8C215,484.9,224.4,486.9,224.4,486.9L224.4,486.9z"/>
	<path id="path4377" sodipodi:nodetypes="csccsc" inkscape:connector-curvature="0" class="st0" d="M173.8,370.4
		c0,0-4.2-12.7-18.3-12.7s-14.1,8.5-14.1,8.5v423.6c0,0,1.4,9.9,14.1,9.9c12.7,0,18.3-9.9,18.3-9.9"/>
	<path id="path4381" sodipodi:nodetypes="cssc" inkscape:connector-curvature="0" class="st0" d="M140,370.4c0,0-35.2-1.4-35.2,21.1
		v371.6c0,22.5,36.6,25.3,36.6,25.3"/>
	<path id="path4363" inkscape:connector-curvature="0" d="M177.3,421.8v-4.9c0-12.4,10.1-22.5,22.5-22.5l0,0l0,0
		c12.4,0,22.5,10.1,22.5,22.5v4.9v4.9c0,12.4-10.1,22.5-22.5,22.5l0,0l0,0c-12.4,0-22.5-10.1-22.5-22.5V421.8z"/>
	<path id="path4361" inkscape:connector-curvature="0" d="M177.3,738.5V735c0-12.4,10.1-22.5,22.5-22.5l0,0l0,0
		c12.4,0,22.5,10.1,22.5,22.5v3.5v3.5c0,12.4-10.1,22.5-22.5,22.5l0,0l0,0c-12.4,0-22.5-10.1-22.5-22.5V738.5z"/>
</g>
<g>
	<polygon class="st0" points="1454.9,379.9 1454.9,453 1454.9,709.2 1454.9,783.8 1498.6,802.1 1522.5,788.1 1522.5,709.2 
		1522.5,453 1522.5,370 1497.2,355.9 	"/>
	<path class="st0" d="M1541.1,358.3c-14.1,0-18.3,12.7-18.3,12.7v419.5c0,0,5.6,9.9,18.3,9.9c12.6,0,14-9.9,14-9.9V789V366.8
		C1555.1,366.8,1555.1,358.3,1541.1,358.3z"/>
	<path class="st0" d="M1556.5,371l-1.4,418c0,0,36.6-2.8,36.6-25.3V392.1C1591.7,369.6,1556.5,371,1556.5,371z"/>
</g>
<g id="auto-izquierda">
	<g id="vehiculo-izquierda">
		<path class="st0" d="M589.2,1083.1l2.4-3.1c-16.3-12.4-21.5-75.1-21.5-103.5c0-24.7,4.7-63.9,18.1-93.3l-2.3-1.1
			c4.3-1.9,8.3-3.9,11.8-6.2c35.7-22.9,137.1-78.6,137.1-78.6c29.1-11,86.2-12.2,135.5-12.4c-0.6,5.5-1.4,20.7-2.6,43.3
			c-1.1,23.1-2.5,49.2-3.7,62c-3.7,19-5,50.9-6.2,87.7c0,22.2,6.7,78.7,12.5,105.2H589.2z"/>
		<path class="st0" d="M587.5,1083.1h-38.4c0,0-5.7-104.3-97.2-105.7c-91.4-1.4-98.6,105.7-98.6,105.7h-65.7l-18.6-38.6
			c-0.5,0-26.2,0-21.4-17.1c4.6-16.6-4.3-41.4,17.1-41.4s47.1,1.4,47.1,1.4l15.7-44.3l-41.4-2.9c0,0,34.3-24.3,118.6-32.8
			c73.7-7.5,138.7-8.4,177.7-23.9c-12.9,29.8-17.5,68.4-17.5,93C565.1,999.2,569.2,1066.7,587.5,1083.1z"/>
		<path class="st0" d="M1387.6,1043c-8.5,10-14.3-1.4-18.5,12.8c-4.3,14.3-2.9,28.6-27.2,27.2c-24.3-1.5-98.6,0-98.6,0
			s-15.7-108.6-98.5-105.7c-82.9,2.8-95.7,105.7-95.7,105.7h-25l4.7-0.5c19.5-75.1,43.5-97.8,66.4-111c3-1.8,6.1-3.4,9.1-5
			c12.5-6.7,24.2-13,27.2-25.2c2.8-11.5-2.7-26.8-17.2-48c-34-49.8-71.7-88.9-92.3-103.3c41.9,4.8,83.6,12.4,105.6,21.5
			c41,16.9,134.8,67.7,151.5,72.9c22.8,7.1,41.4,7.1,80,20c38.5,12.9,25.7,32.9,25.7,32.9l-30-4.3l-5.8,53c0,0,37.2,1.4,41.5,15.6
			C1394.8,1015.9,1396.2,1033,1387.6,1043z"/>
		<path class="st0" d="M1126.7,940.2c-2.5,10-12.8,15.6-24.8,22c-3,1.6-6.1,3.3-9.2,5c-15.5,9-27.5,20.6-37.8,36.5
			c-12.1,18.7-23.1,45.9-31.8,79.3H870.4c-5.8-26.5-12.5-83-12.5-105.2c1.2-36.8,2.5-68.7,6.2-87.7c1.2-12.8,2.6-38.9,3.7-62
			c1.1-22.6,1.9-37.8,2.6-43.3c1.7,0,3.4,0,5,0c19.1-0.1,36.8,0,50.9-0.4c23-0.6,57.4,1.3,92.2,5.2c16.4,11.3,54,51.3,91.9,106.5
			C1123.8,915.9,1129.1,930.3,1126.7,940.2z"/>
	</g>
	<path id="path3846_00000106865106282359792630000003201909752705271723_" inkscape:connector-curvature="0" class="st1" d="
		M361.9,1044.5"/>
	<path id="path3846_00000073705494682549475250000016399686044311468960_" inkscape:connector-curvature="0" class="st1" d="
		M269.1,1044.5"/>
	<g id="ventanas-izquierda">
		<path id="path3884" sodipodi:nodetypes="csccc" inkscape:connector-curvature="0" class="st3" d="M604.8,891.6
			c15.7-18.6,123.4-81.5,151.4-88.6c29.5-7.4,103-7.1,103-7.1l-7.1,95.7L604.8,891.6L604.8,891.6z"/>
		<path id="path3892" sodipodi:nodetypes="ccccc" inkscape:connector-curvature="0" class="st3" d="M884.9,797.3l-4.3,94.3h207.2
			c-11.3-20.8-46.6-74.9-72.9-88.6C1000.6,793.1,932.1,798.7,884.9,797.3L884.9,797.3z"/>
		<path id="path3896" sodipodi:nodetypes="cscsc" inkscape:connector-curvature="0" class="st3" d="M1051.9,804.5
			c0,0,80,84.3,85.7,87.1c5.7,2.9,115.7,1.4,115.7,1.4s-77.1-47.1-102.8-58.6S1060.5,803,1051.9,804.5L1051.9,804.5z"/>
	</g>
	<g>
		<path class="st4" d="M452.1,988.5c-42,0-76,34-76,76l0,0c0,42,34,76,76,76s76-34,76-76l0,0C528.1,1022.5,494.1,988.5,452.1,988.5z
			 M452.1,1108.8c-24.5,0-44.3-19.9-44.3-44.3c0-24.5,19.9-44.3,44.3-44.3s44.3,19.9,44.3,44.3
			C496.5,1089,476.6,1108.8,452.1,1108.8z"/>
		<path class="st4" d="M1146.7,988.5c-42,0-76,34-76,76l0,0c0,42,34,76,76,76s76-34,76-76l0,0
			C1222.7,1022.5,1188.7,988.5,1146.7,988.5z M1146.7,1108.8c-24.5,0-44.3-19.9-44.3-44.3c0-24.5,19.9-44.3,44.3-44.3
			s44.3,19.9,44.3,44.3C1191,1089,1171.2,1108.8,1146.7,1108.8z"/>
	</g>
</g>
<g id="auto-derecha">
	<g id="vehiculo-izquierda_00000061435113636879831640000003739080451714574223_">
		<path class="st0" d="M589.2,81.4l2.4,3.1c-16.3,12.4-21.5,75.1-21.5,103.5c0,24.7,4.7,63.9,18.1,93.3l-2.3,1.1
			c4.3,1.9,8.3,3.9,11.8,6.2c35.7,22.9,137.1,78.6,137.1,78.6c29.1,11,86.2,12.2,135.5,12.4c-0.6-5.5-1.4-20.7-2.6-43.3
			c-1.1-23.1-2.5-49.2-3.7-62c-3.7-18.9-5-50.9-6.2-87.7c0-22.2,6.7-78.7,12.5-105.2L589.2,81.4L589.2,81.4z"/>
		<path class="st0" d="M587.5,81.4h-38.4c0,0-5.7,104.3-97.2,105.7c-91.4,1.4-98.6-105.7-98.6-105.7h-65.7L269.1,120
			c-0.5,0-26.2,0-21.4,17.1c4.6,16.6-4.3,41.4,17.1,41.4s47.1-1.4,47.1-1.4l15.7,44.3l-41.4,2.9c0,0,34.3,24.3,118.6,32.8
			c73.7,7.5,138.7,8.4,177.7,23.9c-12.9-29.8-17.5-68.4-17.5-93C565.1,165.2,569.2,97.8,587.5,81.4z"/>
		<path class="st0" d="M1387.6,121.4c-8.5-10-14.3,1.4-18.5-12.8c-4.3-14.3-2.9-28.6-27.2-27.2c-24.3,1.5-98.6,0-98.6,0
			s-15.7,108.6-98.5,105.7c-82.9-2.8-95.7-105.7-95.7-105.7h-25l4.7,0.5c19.5,75.1,43.5,97.8,66.4,111c3,1.8,6.1,3.4,9.1,5
			c12.5,6.7,24.2,13,27.2,25.2c2.8,11.5-2.7,26.8-17.2,48c-34,49.8-71.7,88.9-92.3,103.3c41.9-4.8,83.6-12.4,105.6-21.5
			c41-16.9,134.8-67.7,151.5-72.9c22.8-7.1,41.4-7.1,80-20c38.5-12.9,25.7-32.9,25.7-32.9l-30,4.3l-5.8-52.9c0,0,37.2-1.4,41.5-15.6
			C1394.8,148.5,1396.2,131.4,1387.6,121.4z"/>
		<path class="st0" d="M1126.7,224.2c-2.5-10-12.8-15.6-24.8-22c-3-1.6-6.1-3.3-9.2-5c-15.5-9-27.5-20.6-37.8-36.5
			c-12.1-18.7-23.1-45.9-31.8-79.3H870.4c-5.8,26.5-12.5,83-12.5,105.2c1.2,36.8,2.5,68.7,6.2,87.7c1.2,12.8,2.6,38.9,3.7,62
			c1.1,22.6,1.9,37.8,2.6,43.3c1.7,0,3.4,0,5,0c19.1,0.1,36.8,0,50.9,0.4c23,0.6,57.4-1.3,92.2-5.2c16.4-11.3,54-51.3,91.9-106.5
			C1123.8,248.5,1129.1,234.1,1126.7,224.2z"/>
	</g>
	<path id="path3846_00000012435931768054348600000008224337190852932229_" inkscape:connector-curvature="0" class="st1" d="
		M361.9,120"/>
	<path id="path3846_00000163063002073275899850000015894007079348525965_" inkscape:connector-curvature="0" class="st1" d="
		M269.1,120"/>
	<g id="ventanas-izquierda_00000031915642924774803200000015106658285438168980_">
		
			<path id="path3884_00000136378384435747515950000005010540282520446649_" sodipodi:nodetypes="csccc" inkscape:connector-curvature="0" class="st3" d="
			M604.8,272.8c15.7,18.6,123.4,81.5,151.4,88.6c29.5,7.4,103,7.1,103,7.1l-7.1-95.7H604.8z"/>
		
			<path id="path3892_00000151525951347365640600000001322427933238978712_" sodipodi:nodetypes="ccccc" inkscape:connector-curvature="0" class="st3" d="
			M884.9,367.1l-4.3-94.3h207.2c-11.3,20.8-46.6,74.9-72.9,88.6C1000.6,371.4,932.1,365.7,884.9,367.1L884.9,367.1z"/>
		
			<path id="path3896_00000021115898373237604680000014248828527376908936_" sodipodi:nodetypes="cscsc" inkscape:connector-curvature="0" class="st3" d="
			M1051.9,360c0,0,80-84.3,85.7-87.1c5.7-2.9,115.7-1.4,115.7-1.4s-77.1,47.1-102.8,58.6S1060.5,361.4,1051.9,360L1051.9,360z"/>
	</g>
	<g>
		<path class="st4" d="M452.1,176c-42,0-76-34-76-76l0,0c0-42,34-76,76-76s76,34,76,76l0,0C528.1,141.9,494.1,176,452.1,176z
			 M452.1,55.6c-24.5,0-44.3,19.9-44.3,44.3s19.9,44.3,44.3,44.3s44.3-19.9,44.3-44.3S476.6,55.6,452.1,55.6z"/>
		<path class="st4" d="M1146.7,176c-42,0-76-34-76-76l0,0c0-42,34-76,76-76s76,34,76,76l0,0C1222.7,141.9,1188.7,176,1146.7,176z
			 M1146.7,55.6c-24.5,0-44.3,19.9-44.3,44.3s19.9,44.3,44.3,44.3s44.3-19.9,44.3-44.3S1171.2,55.6,1146.7,55.6z"/>
	</g>
</g>
<path class="st3" d="M714,651.9c0,31,8.4,78.8,8.4,78.8l-140.8,33.8c0,0-17.2-61.9-17.2-92.9c0.4-33.8,1.8-154.8,2.1-185.8
	c-1.4-31,15.1-91.5,15.1-91.5l140.8,38c0,0-8.4,49.2-8.4,72L714,651.9L714,651.9z"/>
</svg>
